<?xml version="1.0" encoding="UTF-8" standalone="no"?>
<svg
   version="1.0"
   width="188.008pt"
   height="190.13699pt"
   viewBox="0 0 188.008 190.13699"
   preserveAspectRatio="xMidYMid"
   id="svg24"
   sodipodi:docname="grade_a.svg"
   inkscape:version="1.2.2 (b0a8486541, 2022-12-01, custom)"
   xmlns:inkscape="http://www.inkscape.org/namespaces/inkscape"
   xmlns:sodipodi="http://sodipodi.sourceforge.net/DTD/sodipodi-0.dtd"
   xmlns="http://www.w3.org/2000/svg"
   xmlns:svg="http://www.w3.org/2000/svg">
  <defs
     id="defs28" />
  <sodipodi:namedview
     id="namedview26"
     pagecolor="#ffffff"
     bordercolor="#000000"
     borderopacity="0.25"
     inkscape:showpageshadow="2"
     inkscape:pageopacity="0.0"
     inkscape:pagecheckerboard="0"
     inkscape:deskcolor="#d1d1d1"
     inkscape:document-units="pt"
     showgrid="false"
     inkscape:zoom="2.7877358"
     inkscape:cx="227.78342"
     inkscape:cy="115.68528"
     inkscape:window-width="1846"
     inkscape:window-height="1016"
     inkscape:window-x="0"
     inkscape:window-y="0"
     inkscape:window-maximized="1"
     inkscape:current-layer="svg24" />
  <g
     transform="matrix(0.1,0,0,-0.1,-13,201.73697)"
     fill="#000000"
     stroke="none"
     id="g22"
     style="fill:#ff0000">
    <path
       d="M 860,2001 C 736,1974 625,1928 524,1861 293,1708 155,1480 136,1219 l -6,-74 14,80 c 25,154 76,283 152,387 58,78 185,190 275,241 272,154 594,166 866,32 230,-114 393,-308 469,-560 35,-118 40,-317 10,-435 -86,-342 -352,-596 -697,-666 -63,-13 -113,-15 -213,-11 -152,6 -236,27 -357,88 -103,51 -147,83 -237,171 -149,146 -228,308 -272,558 -8,48 -9,42 -5,-45 18,-418 320,-763 750,-856 33,-7 116,-13 185,-13 158,0 265,25 406,94 248,120 419,325 500,596 49,165 45,401 -11,563 -106,314 -344,536 -670,627 -94,26 -328,29 -435,5 z"
       id="path18"
       style="fill:#ff0000" />
    <path
       d="m 1020,1455 c -29,-7 -49,-20 -56,-34 -7,-12 -31,-90 -54,-172 -40,-138 -45,-150 -69,-155 -102,-22 -131,-35 -137,-60 -4,-14 -1,-37 5,-51 10,-22 16,-25 56,-21 25,2 45,1 45,-1 0,-3 -16,-55 -37,-116 -40,-125 -40,-160 3,-171 56,-14 70,4 120,163 25,81 50,152 54,157 5,5 50,15 101,23 107,17 103,20 119,-82 18,-112 38,-179 57,-192 25,-19 57,-16 78,7 18,20 18,24 -9,156 l -27,135 30,28 c 35,33 39,56 15,90 -13,18 -22,22 -48,17 -32,-6 -33,-5 -50,51 -31,102 -92,218 -121,231 -14,7 -27,11 -28,11 -1,-1 -22,-7 -47,-14 z m 82,-238 c 11,-37 18,-70 15,-73 -6,-7 -120,-24 -125,-19 -2,2 11,48 28,101 30,89 34,96 47,78 8,-10 23,-50 35,-87 z"
       id="path20"
       style="fill:#ff0000" />
  </g>
</svg>
