<?xml version="1.0" encoding="UTF-8" standalone="no"?>
<svg
   version="1.0"
   width="188.32401pt"
   height="190.647pt"
   viewBox="0 0 188.32401 190.647"
   preserveAspectRatio="xMidYMid"
   id="svg24"
   sodipodi:docname="grade_d.svg"
   inkscape:version="1.2.2 (b0a8486541, 2022-12-01, custom)"
   xmlns:inkscape="http://www.inkscape.org/namespaces/inkscape"
   xmlns:sodipodi="http://sodipodi.sourceforge.net/DTD/sodipodi-0.dtd"
   xmlns="http://www.w3.org/2000/svg"
   xmlns:svg="http://www.w3.org/2000/svg">
  <defs
     id="defs28" />
  <sodipodi:namedview
     id="namedview26"
     pagecolor="#ffffff"
     bordercolor="#000000"
     borderopacity="0.25"
     inkscape:showpageshadow="2"
     inkscape:pageopacity="0.0"
     inkscape:pagecheckerboard="0"
     inkscape:deskcolor="#d1d1d1"
     inkscape:document-units="pt"
     showgrid="false"
     inkscape:zoom="2.7877358"
     inkscape:cx="141.33333"
     inkscape:cy="141.51269"
     inkscape:window-width="1846"
     inkscape:window-height="1016"
     inkscape:window-x="0"
     inkscape:window-y="0"
     inkscape:window-maximized="1"
     inkscape:current-layer="svg24" />
  <g
     transform="matrix(0.10000024,0,0,-0.1,-13.0879,200.9634)"
     fill="#000000"
     stroke="none"
     id="g22"
     style="fill:#ff0000">
    <path
       d="m 860,1991 c -301,-64 -542,-254 -657,-521 -34,-80 -64,-200 -62,-253 1,-20 5,-9 10,28 49,336 322,616 682,699 288,67 596,-12 811,-206 C 2142,1289 1989,490 1361,254 1242,209 1152,196 1000,203 759,213 559,306 390,487 255,630 196,759 142,1020 c -9,44 -10,44 -11,10 -2,-70 21,-207 49,-292 95,-284 317,-500 605,-591 454,-142 934,70 1141,506 90,190 113,439 60,642 -77,297 -278,530 -558,647 -159,67 -389,86 -568,49 z"
       id="path18"
       style="fill:#ff0000" />
    <path
       d="m 805,1429 c -56,-9 -79,-32 -70,-69 12,-45 25,-53 80,-45 27,3 59,8 70,11 20,5 20,1 20,-287 0,-306 2,-319 43,-319 39,0 297,203 376,296 86,101 116,227 71,303 -27,45 -103,86 -197,105 -83,17 -305,20 -393,5 z m 426,-124 c 61,-22 69,-32 69,-84 0,-35 -7,-59 -29,-92 -32,-50 -121,-138 -196,-193 l -50,-38 -7,164 c -4,105 -2,182 5,217 l 11,54 77,-7 c 43,-3 97,-13 120,-21 z"
       id="path20"
       style="fill:#ff0000" />
  </g>
</svg>
