<?xml version="1.0" encoding="UTF-8" standalone="no"?>
<svg
   version="1.0"
   width="187.76801pt"
   height="190.136pt"
   viewBox="0 0 187.76801 190.136"
   preserveAspectRatio="xMidYMid"
   id="svg24"
   sodipodi:docname="grade_c.svg"
   inkscape:version="1.2.2 (b0a8486541, 2022-12-01, custom)"
   xmlns:inkscape="http://www.inkscape.org/namespaces/inkscape"
   xmlns:sodipodi="http://sodipodi.sourceforge.net/DTD/sodipodi-0.dtd"
   xmlns="http://www.w3.org/2000/svg"
   xmlns:svg="http://www.w3.org/2000/svg">
  <defs
     id="defs28" />
  <sodipodi:namedview
     id="namedview26"
     pagecolor="#ffffff"
     bordercolor="#000000"
     borderopacity="0.25"
     inkscape:showpageshadow="2"
     inkscape:pageopacity="0.0"
     inkscape:pagecheckerboard="0"
     inkscape:deskcolor="#d1d1d1"
     inkscape:document-units="pt"
     showgrid="false"
     inkscape:zoom="2.7877358"
     inkscape:cx="141.33334"
     inkscape:cy="141.51269"
     inkscape:window-width="1846"
     inkscape:window-height="1016"
     inkscape:window-x="0"
     inkscape:window-y="0"
     inkscape:window-maximized="1"
     inkscape:current-layer="svg24" />
  <g
     transform="matrix(0.09999994,0,0,-0.1,-14.091756,201.68153)"
     fill="#000000"
     stroke="none"
     id="g22"
     style="fill:#ff0000">
    <path
       d="M 903,2010 C 810,1993 666,1941 580,1893 479,1836 315,1679 261,1588 193,1472 154,1347 146,1222 l -5,-77 13,85 c 17,109 32,161 66,236 106,234 338,420 606,486 69,16 120,21 224,22 150,0 223,-14 345,-65 257,-106 454,-334 526,-604 30,-114 31,-317 0,-430 C 1850,611 1677,407 1426,290 1291,226 1236,215 1055,215 917,215 884,218 815,238 466,338 213,630 156,997 l -14,88 -1,-65 C 137,755 279,475 505,303 607,225 738,166 875,134 c 124,-28 312,-24 438,10 367,99 636,400 697,779 17,104 8,289 -20,392 -87,330 -345,586 -686,681 -69,19 -321,28 -401,14 z"
       id="path18"
       style="fill:#ff0000" />
    <path
       d="m 1054,1440 c -94,-20 -180,-148 -224,-334 -56,-231 19,-360 210,-361 96,0 148,24 235,110 65,65 86,105 68,134 -21,34 -50,24 -110,-36 -69,-70 -120,-96 -189,-97 -59,-1 -88,18 -111,73 -41,96 63,386 138,386 22,0 24,-4 24,-45 0,-52 9,-70 35,-70 46,0 81,93 61,159 -18,63 -73,95 -137,81 z"
       id="path20"
       style="fill:#ff0000" />
  </g>
</svg>
