<?xml version="1.0" encoding="UTF-8" standalone="no"?>
<svg
   version="1.0"
   width="187.74001pt"
   height="190.07899pt"
   viewBox="0 0 187.74001 190.07899"
   preserveAspectRatio="xMidYMid"
   id="svg24"
   sodipodi:docname="grade_f.svg"
   inkscape:version="1.2.2 (b0a8486541, 2022-12-01, custom)"
   xmlns:inkscape="http://www.inkscape.org/namespaces/inkscape"
   xmlns:sodipodi="http://sodipodi.sourceforge.net/DTD/sodipodi-0.dtd"
   xmlns="http://www.w3.org/2000/svg"
   xmlns:svg="http://www.w3.org/2000/svg">
  <defs
     id="defs28" />
  <sodipodi:namedview
     id="namedview26"
     pagecolor="#ffffff"
     bordercolor="#000000"
     borderopacity="0.25"
     inkscape:showpageshadow="2"
     inkscape:pageopacity="0.0"
     inkscape:pagecheckerboard="0"
     inkscape:deskcolor="#d1d1d1"
     inkscape:document-units="pt"
     showgrid="false"
     inkscape:zoom="2.7877358"
     inkscape:cx="141.33333"
     inkscape:cy="141.51269"
     inkscape:window-width="1846"
     inkscape:window-height="1016"
     inkscape:window-x="0"
     inkscape:window-y="0"
     inkscape:window-maximized="1"
     inkscape:current-layer="svg24" />
  <g
     transform="matrix(0.0999998,0,0,-0.1,-15.099969,200.65849)"
     fill="#000000"
     stroke="none"
     id="g22"
     style="fill:#ff0000">
    <path
       d="M 890,1995 C 675,1949 522,1864 373,1706 244,1570 166,1393 155,1213 l -4,-78 10,79 c 35,285 212,524 482,656 145,70 249,94 417,94 163,0 258,-22 395,-89 307,-151 498,-456 498,-795 0,-249 -90,-459 -269,-631 C 1571,342 1454,274 1305,229 1207,200 993,192 888,213 612,270 382,449 252,705 c -39,77 -80,211 -92,300 -8,65 -9,63 -5,-40 6,-170 49,-298 151,-452 126,-189 345,-338 576,-389 114,-26 311,-24 423,5 546,137 854,712 670,1250 -97,284 -333,507 -632,597 -74,23 -111,27 -238,30 -102,2 -171,-1 -215,-11 z"
       id="path18"
       style="fill:#ff0000" />
    <path
       d="m 982,1422 c -33,-36 -67,-44 -116,-31 -32,9 -41,8 -57,-7 -27,-24 -24,-51 10,-85 26,-25 37,-29 85,-29 31,0 56,-1 56,-2 0,-2 3,-35 6,-73 l 6,-70 -33,-15 c -29,-13 -34,-20 -34,-50 0,-31 4,-36 31,-44 l 31,-9 6,-131 c 3,-72 11,-146 18,-164 19,-56 78,-53 100,6 6,14 5,80 -2,168 -8,92 -8,149 -2,155 5,5 65,21 134,35 68,14 132,33 142,41 9,9 17,29 17,45 0,48 -30,54 -157,29 -59,-12 -116,-24 -125,-27 -16,-5 -18,3 -18,64 v 70 l 38,8 c 20,4 80,8 132,9 53,1 101,4 107,8 6,4 17,23 23,43 25,73 -36,89 -227,61 -74,-12 -83,-11 -103,5 -30,24 -37,23 -68,-10 z"
       id="path20"
       style="fill:#ff0000" />
  </g>
</svg>
